<mxfile host="www.draw.io" modified="2020-02-25T15:05:38.863Z" agent="Mozilla/5.0 (Windows NT 10.0; Win64; x64) AppleWebKit/537.36 (KHTML, like Gecko) Chrome/79.0.3945.130 Safari/537.36" etag="BB-q9hefycwPlI4Jn05y" version="12.7.4" type="github">
  <diagram id="C5RBs43oDa-KdzZeNtuy" name="Page-1">
    <mxGraphModel dx="870" dy="595" grid="1" gridSize="10" guides="1" tooltips="1" connect="1" arrows="1" fold="1" page="1" pageScale="1" pageWidth="827" pageHeight="1169" math="0" shadow="0">
      <root>
        <mxCell id="WIyWlLk6GJQsqaUBKTNV-0" />
        <mxCell id="WIyWlLk6GJQsqaUBKTNV-1" parent="WIyWlLk6GJQsqaUBKTNV-0" />
        <mxCell id="ARlB90iOtna4vnzFqCX2-7" value="" style="edgeStyle=orthogonalEdgeStyle;rounded=0;orthogonalLoop=1;jettySize=auto;html=1;" edge="1" parent="WIyWlLk6GJQsqaUBKTNV-1" source="ARlB90iOtna4vnzFqCX2-0" target="ARlB90iOtna4vnzFqCX2-6">
          <mxGeometry relative="1" as="geometry" />
        </mxCell>
        <mxCell id="ARlB90iOtna4vnzFqCX2-0" value="向OpenStack请求派生n+1个虚拟机" style="rounded=0;whiteSpace=wrap;html=1;" vertex="1" parent="WIyWlLk6GJQsqaUBKTNV-1">
          <mxGeometry x="260" y="240" width="120" height="60" as="geometry" />
        </mxCell>
        <mxCell id="ARlB90iOtna4vnzFqCX2-6" value="部署参数服务器" style="rounded=0;whiteSpace=wrap;html=1;" vertex="1" parent="WIyWlLk6GJQsqaUBKTNV-1">
          <mxGeometry x="260" y="320" width="120" height="60" as="geometry" />
        </mxCell>
        <mxCell id="ARlB90iOtna4vnzFqCX2-4" value="" style="edgeStyle=orthogonalEdgeStyle;rounded=0;orthogonalLoop=1;jettySize=auto;html=1;" edge="1" parent="WIyWlLk6GJQsqaUBKTNV-1" source="ARlB90iOtna4vnzFqCX2-1" target="ARlB90iOtna4vnzFqCX2-2">
          <mxGeometry relative="1" as="geometry" />
        </mxCell>
        <mxCell id="ARlB90iOtna4vnzFqCX2-1" value="开始" style="strokeWidth=2;html=1;shape=mxgraph.flowchart.terminator;whiteSpace=wrap;" vertex="1" parent="WIyWlLk6GJQsqaUBKTNV-1">
          <mxGeometry x="270" y="70" width="100" height="60" as="geometry" />
        </mxCell>
        <mxCell id="ARlB90iOtna4vnzFqCX2-5" value="" style="edgeStyle=orthogonalEdgeStyle;rounded=0;orthogonalLoop=1;jettySize=auto;html=1;" edge="1" parent="WIyWlLk6GJQsqaUBKTNV-1" source="ARlB90iOtna4vnzFqCX2-2" target="ARlB90iOtna4vnzFqCX2-0">
          <mxGeometry relative="1" as="geometry" />
        </mxCell>
        <mxCell id="ARlB90iOtna4vnzFqCX2-2" value="获取新分布式强化学习任务的训练单元个数，记作n" style="rounded=0;whiteSpace=wrap;html=1;" vertex="1" parent="WIyWlLk6GJQsqaUBKTNV-1">
          <mxGeometry x="260" y="160" width="120" height="60" as="geometry" />
        </mxCell>
        <mxCell id="ARlB90iOtna4vnzFqCX2-8" value="部署参数服务器" style="rounded=0;whiteSpace=wrap;html=1;" vertex="1" parent="WIyWlLk6GJQsqaUBKTNV-1">
          <mxGeometry x="260" y="400" width="120" height="60" as="geometry" />
        </mxCell>
      </root>
    </mxGraphModel>
  </diagram>
</mxfile>
